<svg width="36" height="35" viewBox="0 0 36 35" fill="none" xmlns="http://www.w3.org/2000/svg">
<g filter="url(#filter0_i_10_460)">
<path d="M29.6376 7.53879C26.8513 5.29661 22.4435 4.91653 22.2548 4.90286C21.9622 4.87825 21.6833 5.04231 21.563 5.31301C21.5521 5.32942 21.4563 5.5509 21.3497 5.89543C23.1927 6.20715 25.4567 6.83333 27.5048 8.10481C27.8329 8.30715 27.9341 8.73918 27.7317 9.06731C27.5978 9.28333 27.3708 9.4009 27.1356 9.4009C27.0099 9.4009 26.8813 9.36536 26.7665 9.29426C23.2446 7.1095 18.8478 7.00012 18.0001 7.00012C17.1524 7.00012 12.7528 7.1095 9.23369 9.29426C8.90557 9.49934 8.47354 9.39817 8.27119 9.07004C8.06612 8.73918 8.16729 8.30989 8.49541 8.10481C10.5435 6.83606 12.8075 6.20715 14.6505 5.89817C14.5438 5.5509 14.4481 5.33215 14.4399 5.31301C14.3169 5.04231 14.0407 4.87278 13.7454 4.90286C13.5567 4.91653 9.14893 5.29661 6.32432 7.56887C4.85049 8.93333 1.9001 16.9068 1.9001 23.8001C1.9001 23.9232 1.93291 24.0407 1.99307 24.1474C4.02744 27.7239 9.58096 28.6591 10.847 28.7001C10.8524 28.7001 10.8606 28.7001 10.8688 28.7001C11.0931 28.7001 11.3036 28.5935 11.4349 28.413L12.7146 26.6521C9.26104 25.7607 7.49737 24.2458 7.39619 24.1556C7.10635 23.9013 7.07901 23.4583 7.33604 23.1685C7.59033 22.8786 8.0333 22.8513 8.32315 23.1056C8.36416 23.1439 11.6126 25.9001 18.0001 25.9001C24.3985 25.9001 27.647 23.1329 27.6798 23.1056C27.9696 22.854 28.4099 22.8786 28.6669 23.1712C28.9212 23.4611 28.8938 23.9013 28.604 24.1556C28.5028 24.2458 26.7392 25.7607 23.2856 26.6521L24.5653 28.413C24.6966 28.5935 24.9071 28.7001 25.1313 28.7001C25.1396 28.7001 25.1478 28.7001 25.1532 28.7001C26.4192 28.6591 31.9728 27.7239 34.0071 24.1474C34.0673 24.0407 34.1001 23.9232 34.1001 23.8001C34.1001 16.9068 31.1497 8.93333 29.6376 7.53879ZM13.4501 21.0001C12.0966 21.0001 11.0001 19.7478 11.0001 18.2001C11.0001 16.6525 12.0966 15.4001 13.4501 15.4001C14.8036 15.4001 15.9001 16.6525 15.9001 18.2001C15.9001 19.7478 14.8036 21.0001 13.4501 21.0001ZM22.5501 21.0001C21.1966 21.0001 20.1001 19.7478 20.1001 18.2001C20.1001 16.6525 21.1966 15.4001 22.5501 15.4001C23.9036 15.4001 25.0001 16.6525 25.0001 18.2001C25.0001 19.7478 23.9036 21.0001 22.5501 21.0001Z" fill="#B8C5D9"/>
</g>
<defs>
<filter id="filter0_i_10_460" x="1.9001" y="4.89941" width="32.2" height="27.8008" filterUnits="userSpaceOnUse" color-interpolation-filters="sRGB">
<feFlood flood-opacity="0" result="BackgroundImageFix"/>
<feBlend mode="normal" in="SourceGraphic" in2="BackgroundImageFix" result="shape"/>
<feColorMatrix in="SourceAlpha" type="matrix" values="0 0 0 0 0 0 0 0 0 0 0 0 0 0 0 0 0 0 127 0" result="hardAlpha"/>
<feOffset dy="4"/>
<feGaussianBlur stdDeviation="7.5"/>
<feComposite in2="hardAlpha" operator="arithmetic" k2="-1" k3="1"/>
<feColorMatrix type="matrix" values="0 0 0 0 0 0 0 0 0 0 0 0 0 0 0 0 0 0 0.2 0"/>
<feBlend mode="normal" in2="shape" result="effect1_innerShadow_10_460"/>
</filter>
</defs>
</svg>
