<svg width="408" height="462" viewBox="0 0 408 462" fill="none" xmlns="http://www.w3.org/2000/svg">
<path d="M267.359 88.1398C267.22 95.2055 266.873 116.287 267.429 121.598L267.359 88.1398ZM267.359 88.1398C270.745 85.4614 278.211 78.8806 278.443 72.4615C278.745 64.149 271.626 63.7103 271.626 63.7103L267.359 88.1398ZM206.608 44.5684C206.608 44.5684 207.652 75.6711 209.924 87.4471C212.197 99.2232 217.692 107.097 222.585 109.591C227.477 112.085 234.155 111.53 234.155 111.53L233.599 119.889" stroke="black" stroke-width="1.15966" stroke-linecap="round" stroke-linejoin="round"/>
<path fill-rule="evenodd" clip-rule="evenodd" d="M60.5511 0.0270996C60.5511 0.0270996 75.4606 42.3055 79.8198 58.6535C84.1791 75.0014 88.1905 91.8343 88.1905 91.8343L34.9289 102.848L1.26074 38.8881L60.5511 0.0270996Z" fill="#FFC300"/>
<path fill-rule="evenodd" clip-rule="evenodd" d="M66.2552 3.05231L63.8437 4.43773L63.0089 2.08252L1.26074 38.8885L31.9146 124.277L94.2424 95.0442L71.797 22.3558C72.8636 21.5477 73.7215 20.8781 73.7215 20.8781L69.4087 4.46082L66.9972 5.61534L66.2552 3.05231Z" fill="white"/>
<path fill-rule="evenodd" clip-rule="evenodd" d="M69.1069 143.465C69.1069 143.465 63.0781 128.779 57.374 121.113C55.9596 119.22 54.6843 117.303 53.5713 115.525L53.9191 115.387L54.2437 115.225L54.5684 115.087L54.8698 114.971L54.893 114.948L55.2408 114.809L55.5654 114.671L55.9132 114.532L56.2378 114.371L56.3538 114.325L56.5857 114.232L56.9103 114.094L57.2581 113.932L57.5827 113.794L57.861 113.678L57.9305 113.655L58.2783 113.493L58.603 113.355L58.9508 113.216L59.2986 113.055L59.3682 113.032L59.6464 112.916L60.3188 112.616L60.6667 112.477L60.8985 112.362L61.0145 112.316L61.3623 112.177L61.7101 112.016L63.9825 111.046L64.1448 110.976L64.4926 110.815L64.8404 110.676L65.1882 110.515L65.5128 110.376H65.536L65.8838 110.215L66.2316 110.076L66.5795 109.914L66.9273 109.776L67.0664 109.707L67.2751 109.614L67.5997 109.476L67.9475 109.314L68.2953 109.175L68.5968 109.037L68.6431 109.014L68.991 108.875L69.3388 108.714L69.6866 108.575L70.0344 108.437L70.1271 108.39L70.3822 108.275L70.7068 108.136L71.0546 107.975L71.4024 107.836L71.6343 107.721L72.0749 107.536L72.4227 107.374L72.7705 107.236L73.0951 107.097L73.1415 107.074L73.4429 106.936L73.7676 106.797L74.1154 106.659L74.44 106.497L74.6487 106.428L74.7878 106.358L75.1124 106.22L75.4603 106.081C79.1239 104.465 82.602 102.941 85.7091 101.602C85.8482 105.25 85.941 109.268 85.6859 110.769C85.1758 113.77 82.5092 122.614 85.0135 128.294C87.5177 133.951 69.1069 143.465 69.1069 143.465Z" fill="white"/>
<path d="M85.7091 101.602C85.8482 105.25 85.941 109.268 85.6859 110.769C85.1758 113.77 82.5092 122.614 85.0135 128.294C87.5177 133.951 69.1069 143.465 69.1069 143.465C69.1069 143.465 63.0781 128.779 57.374 121.113C55.9596 119.22 54.6843 117.303 53.5713 115.525" stroke="black" stroke-width="1.15966" stroke-linecap="round" stroke-linejoin="round"/>
<path fill-rule="evenodd" clip-rule="evenodd" d="M59.0205 436.827C59.0205 436.827 73.4431 460.494 87.0078 460.494C100.572 460.494 103.656 451.489 105.419 446.917C107.181 442.322 107.529 438.143 107.529 438.143L92.9437 438.974C92.9437 438.974 90.2772 451.073 85.6629 452.251C81.0486 453.405 77.3618 448.072 74.0228 441.56C70.6606 435.072 59.0205 436.827 59.0205 436.827Z" fill="#FFC300"/>
<path fill-rule="evenodd" clip-rule="evenodd" d="M173.59 321.122C173.59 321.122 174.587 365.825 176.094 394.503C177.601 423.204 184.465 460.726 184.465 460.726H299.382C302.744 421.334 313.804 334.283 310.605 299.763C309.306 285.863 173.59 321.122 173.59 321.122Z" fill="black" stroke="black" stroke-width="1.15966" stroke-linecap="round" stroke-linejoin="round"/>
<path fill-rule="evenodd" clip-rule="evenodd" d="M176.234 143.626C169.695 151.638 137.116 192.093 137.116 192.093C137.116 192.093 109.964 144.965 103.703 135.544C97.4195 126.124 93.4776 120.605 93.4776 120.605C93.4776 120.605 84.0867 126.354 76.0638 131.781C68.0178 137.207 63.1484 142.287 63.1484 142.287C63.1484 142.287 90.8806 239.705 127.401 245.385C143.748 247.925 162.692 236.565 176.21 225.666C175.167 246.124 169.277 316.157 171.805 322.692C173.822 327.864 181.706 332.367 216.533 334.537C251.384 336.708 298.107 318.859 303.138 315.187C308.17 311.516 313.271 306.274 312.761 294.521C312.274 282.745 319.671 214.283 319.671 214.283C319.671 214.283 333.073 187.082 324.007 156.741C318.813 139.285 298.571 130.049 282.27 125.362L282.223 125.339C280.832 124.923 279.395 124.53 277.957 124.184C267.917 121.644 260.265 120.859 260.265 120.859L258.526 121.228C238.515 119.635 219.942 121.759 219.942 121.759C205.334 122.429 185.509 132.243 176.234 143.626Z" fill="#003566"/>
<path fill-rule="evenodd" clip-rule="evenodd" d="M159.862 285.516C159.862 285.516 177.276 308.537 181.983 365.917C186.667 423.296 173.102 456.846 156.175 460.01C139.271 463.173 136.419 454.491 132.57 450.335C128.698 446.156 123.689 435.996 123.689 435.996L135.747 432.648C135.747 432.648 142.935 454.33 149.984 453.337C157.01 452.321 166.238 425.143 165.404 391.27C164.546 357.419 151.654 328.049 151.654 328.049L159.862 285.516Z" fill="#FFC300"/>
<path fill-rule="evenodd" clip-rule="evenodd" d="M83.8768 264.388C83.8768 264.388 124.733 255.06 146.181 267.39C167.63 279.743 165.613 296.761 163.595 317.773C161.601 338.785 154.784 362.984 154.784 362.984L99.9457 380.648L51.7158 364.646L64.7704 294.59C64.7704 294.59 68.4572 269.884 83.8768 264.388Z" fill="black"/>
<path fill-rule="evenodd" clip-rule="evenodd" d="M97.6046 267.228C97.6046 267.228 126.751 265.219 139.643 271.731C152.536 278.242 148.524 287.409 144.513 299.416C140.478 311.423 118.033 370.303 118.033 370.303L60.7598 362.961L75.4838 288.587C75.4838 288.587 77.8257 270.068 97.6046 267.228Z" fill="black" stroke="black" stroke-width="0.463865" stroke-linecap="round" stroke-linejoin="round"/>
<path fill-rule="evenodd" clip-rule="evenodd" d="M31.9146 124.276C33.0739 124.784 98.2539 96.1057 98.2539 96.1057L73.165 6.19189C73.165 6.19189 20.9469 28.8666 1.26074 38.8878L31.9146 124.276Z" fill="#FFC300"/>
<path fill-rule="evenodd" clip-rule="evenodd" d="M16.6807 44.6372L23.8688 66.319C23.8688 66.319 52.598 57.0598 60.7369 53.9888C68.8525 50.8946 72.4465 49.1398 72.4465 49.1398L65.2584 24.8718C65.2584 24.8718 34.2568 37.0404 16.6807 44.6372Z" fill="white"/>
<path fill-rule="evenodd" clip-rule="evenodd" d="M373.743 297.061C373.743 297.061 369.801 295.306 367.784 298.978C365.79 302.649 347.426 335.345 347.426 335.345L338.336 350.539C336.087 352.062 334.788 352.94 334.788 352.94L333.096 357.627C333.096 357.627 333.652 359.567 335.53 361.368C335.739 361.553 335.948 361.737 336.203 361.899C340.098 364.577 364.468 375.915 364.468 375.915C364.468 375.915 369.593 379.586 373.442 373.259C377.291 366.91 405.186 317.45 405.186 317.45C405.186 317.45 406.994 314.656 406.322 312.255C406.322 312.255 405.719 309.553 403.957 308.399C403.817 308.306 403.261 308.537 402.333 308.999C395.029 305.813 373.743 297.061 373.743 297.061Z" fill="white" stroke="#FFC300" stroke-width="1.15966" stroke-linecap="round" stroke-linejoin="round"/>
<path fill-rule="evenodd" clip-rule="evenodd" d="M313.386 63.8265C313.386 63.8265 307.891 59.1854 307.195 55.6987C306.476 52.189 310.534 49.7183 313.433 51.2654C316.308 52.8124 319.253 58.9083 319.253 58.9083L313.386 63.8265Z" fill="black"/>
<path fill-rule="evenodd" clip-rule="evenodd" d="M342.812 100.077L347.611 104.788L348.098 104.187L345.339 98.2532L342.812 100.077Z" fill="black"/>
<path d="M192.997 151.939C192.997 151.939 186.644 174.798 183.792 187.636C180.94 200.475 179.433 208.372 179.433 208.372" stroke="black" stroke-width="1.15966" stroke-linecap="round" stroke-linejoin="round"/>
<path d="M66.3008 117.88C66.3008 117.88 73.3962 108.759 75.2744 106.15" stroke="black" stroke-width="1.15966" stroke-linecap="round" stroke-linejoin="round"/>
<path d="M223.883 121.39C228.451 151.315 274.153 139.862 273.62 123.145" stroke="#6CA3B7" stroke-width="1.15966" stroke-linecap="round" stroke-linejoin="round"/>
<path d="M213.728 360.582C213.728 360.582 217.739 371.25 221.263 376.261C224.788 381.271 227.617 385.266 227.617 385.266L237.541 458.485" stroke="white" stroke-width="1.15966" stroke-linecap="round" stroke-linejoin="round"/>
<path d="M287.928 346.728L273.181 367.763" stroke="white" stroke-width="1.15966" stroke-linecap="round" stroke-linejoin="round"/>
<path d="M292.193 359.243C292.193 359.243 285.422 365.755 283.73 367.833C282.06 369.934 279.046 372.936 279.046 372.936" stroke="white" stroke-width="1.15966" stroke-linecap="round" stroke-linejoin="round"/>
<path d="M65.6064 150.276C65.6064 150.276 79.4725 139.239 86.1737 134.551C92.8749 129.887 97.7211 126.701 97.7211 126.701" stroke="#6CA3B7" stroke-width="1.15966" stroke-linecap="round" stroke-linejoin="round"/>
<path fill-rule="evenodd" clip-rule="evenodd" d="M178.064 207.84C178.064 207.84 160.233 198.835 153.764 195.833C147.318 192.831 145.648 220.286 143.306 230.63C140.964 240.952 133.591 257.646 133.591 257.646L141.544 255.799C141.544 255.799 144.721 256.815 147.666 256.307C159.746 254.252 165.589 249.657 172.708 239.428L177.995 241.506L184.696 210.357L178.064 207.84Z" fill="white" stroke="black" stroke-width="1.15966" stroke-linecap="round" stroke-linejoin="round"/>
<path fill-rule="evenodd" clip-rule="evenodd" d="M81.328 206.547L138.3 207.979C139.575 206.778 140.294 206.132 140.294 206.132L148.873 205.393C148.873 205.393 153.325 208.371 153.418 210.935C153.673 211.627 153.742 212.458 153.487 213.521C152.142 219.108 118.683 317.358 118.683 317.358C118.683 317.358 116.666 322.022 112.237 321.676C107.785 321.353 47.8221 315.003 47.8221 315.003C47.8221 315.003 45.828 314.956 44.0194 314.148C44.0194 314.148 43.9266 314.125 43.7875 314.033C43.6252 313.964 43.4861 313.894 43.3469 313.802C42.0948 313.086 39.4978 311.239 38.1993 307.706C37.8979 306.898 40.634 303.434 45.4106 298.239C53.9668 274.248 74.2094 215.183 74.2094 215.183C74.2094 215.183 76.2267 205.578 81.328 206.547Z" fill="#FFC300"/>
<path d="M153.323 233.24C153.323 233.24 149.149 242.73 146.552 247.325C143.955 251.92 141.544 255.799 141.544 255.799" stroke="black" stroke-width="1.15966" stroke-linecap="round" stroke-linejoin="round"/>
<path d="M159.445 235.987C159.445 235.987 156.5 243.746 152.999 248.918C149.474 254.09 146.646 256.422 146.646 256.422" stroke="black" stroke-width="1.15966" stroke-linecap="round" stroke-linejoin="round"/>
<path d="M165.892 238.065C165.892 238.065 163.388 243.653 160.281 247.671C157.174 251.666 153.626 254.921 153.626 254.921" stroke="black" stroke-width="1.15966" stroke-linecap="round" stroke-linejoin="round"/>
<path d="M184.001 252.682C184.001 252.682 186.923 242.245 189.682 231.3C192.441 220.378 193.995 210.473 193.995 210.473" stroke="#6CA3B7" stroke-width="1.15966" stroke-linecap="round" stroke-linejoin="round"/>
<path fill-rule="evenodd" clip-rule="evenodd" d="M206.608 44.5681C206.608 44.5681 207.652 75.6708 209.924 87.4468C212.197 99.2229 217.692 107.097 222.585 109.59C227.477 112.084 234.155 111.53 234.155 111.53L233.599 119.889L229.448 121.02C231.651 131.85 239.581 135.821 250.502 134.713C262.444 133.489 267.823 127.324 270.258 122.452L267.429 121.597C266.873 116.287 267.22 95.2052 267.359 88.1395C270.745 85.4611 278.211 78.8803 278.443 72.4612C278.745 64.1487 271.626 63.71 271.626 63.71C271.626 63.71 278.745 30.5061 243.43 28.2201C208.116 25.9573 206.608 44.5681 206.608 44.5681Z" fill="white"/>
<path fill-rule="evenodd" clip-rule="evenodd" d="M259.848 65.9728C260.057 67.6122 260.219 69.0669 260.404 70.129C261.17 74.3546 263.21 72.5304 264.045 69.598C264.879 66.6424 267.616 64.241 271.627 63.7099C271.627 63.7099 278.746 64.1486 278.444 72.4612C278.143 80.7506 267.361 88.1395 267.361 88.1395C267.361 88.1395 267.407 94.4201 267.175 101.209C274.27 95.9209 282.409 84.191 286.722 65.2801C291.035 46.3922 287.626 38.1258 279.14 27.8506C270.653 17.5985 261.1 16.5364 246.237 17.1367C231.374 17.7371 213.658 18.499 213.658 18.499C197.381 19.8152 189.729 16.6518 188.059 21.7086C186.413 26.7654 194.506 29.6979 194.506 29.6979C194.506 29.6979 185.045 31.9607 185.115 37.1099C185.184 42.2359 198.842 42.3745 198.842 42.3745C198.842 42.3745 192.048 47.7776 194.552 50.5023C197.056 53.2038 206.888 51.8184 206.888 51.8184C206.888 51.8184 210.922 50.8486 218.087 49.2092C220.777 48.6088 224.023 47.5467 227.548 46.5076C227.269 47.5236 227.385 48.6319 228.475 49.671C231.466 52.5342 245.819 45.9765 245.819 45.9765C245.819 45.9765 249.089 52.7189 256.648 49.9712C258.897 53.8965 259.709 59.4382 259.848 65.9728Z" fill="black" stroke="black" stroke-width="0.463865" stroke-linecap="round" stroke-linejoin="round"/>
<path d="M240.184 75.0706C241.477 75.0706 242.526 73.5923 242.526 71.7687C242.526 69.9451 241.477 68.4668 240.184 68.4668C238.89 68.4668 237.842 69.9451 237.842 71.7687C237.842 73.5923 238.89 75.0706 240.184 75.0706Z" fill="black"/>
<path d="M215.722 71.9303C217.015 71.9303 218.064 70.4519 218.064 68.6283C218.064 66.8047 217.015 65.3264 215.722 65.3264C214.428 65.3264 213.38 66.8047 213.38 68.6283C213.38 70.4519 214.428 71.9303 215.722 71.9303Z" fill="black"/>
<path d="M225.669 69.2058C225.669 69.2058 222.956 82.4135 224.927 84.838C226.898 87.2625 230.585 85.7385 230.585 85.7385" stroke="black" stroke-width="1.15966" stroke-linecap="round" stroke-linejoin="round"/>
<path d="M231.024 93.335C231.024 93.335 232.856 94.0046 235.5 92.5037C238.166 91.0029 239.673 88.5784 239.673 88.5784" stroke="black" stroke-width="1.15966" stroke-linecap="round" stroke-linejoin="round"/>
<path d="M273.851 68.7676C268.449 70.7533 265.11 76.803 265.597 82.3447" stroke="black" stroke-width="1.15966" stroke-linecap="round" stroke-linejoin="round"/>
<path d="M272.276 76.2253L267.708 74.124" stroke="black" stroke-width="1.15966" stroke-linecap="round" stroke-linejoin="round"/>
<path d="M237.704 62.0934C237.704 62.0934 239.304 61.7239 241.994 62.0703C244.684 62.4166 246.098 63.3403 246.098 63.3403" stroke="black" stroke-width="1.15966" stroke-linecap="round" stroke-linejoin="round"/>
<path d="M212.151 60.5016C214.864 59.3932 217.971 59.8089 220.638 60.8479" stroke="black" stroke-width="1.15966" stroke-linecap="round" stroke-linejoin="round"/>
<path d="M254.908 100.124C254.908 100.124 252.241 104.927 246.375 107.928C240.509 110.93 234.155 111.53 234.155 111.53" stroke="black" stroke-width="1.15966" stroke-linecap="round" stroke-linejoin="round"/>
<path fill-rule="evenodd" clip-rule="evenodd" d="M311.88 64.3571C311.88 64.3571 311.88 61.9788 314.593 59.1848C317.329 56.3909 319.671 56.8065 319.671 56.8065L346.313 98.5077L343.067 101.302L311.88 64.3571Z" fill="#FFC300"/>
<path fill-rule="evenodd" clip-rule="evenodd" d="M78.0111 202.506L144.026 204.169C144.026 204.169 151.515 203.869 150.17 209.456C148.826 215.044 115.366 313.294 115.366 313.294C115.366 313.294 113.372 317.981 108.92 317.635C104.491 317.311 44.5284 310.962 44.5284 310.962C44.5284 310.962 35.5549 310.708 38.5693 303.711C41.5836 296.715 70.8926 211.142 70.8926 211.142C70.8926 211.142 72.9099 201.536 78.0111 202.506Z" fill="#FFC300"/>
<path d="M96.6636 263.187C100.191 261.088 101.656 257.062 99.9359 254.195C98.2155 251.329 93.961 250.707 90.4333 252.807C86.9057 254.907 85.4406 258.932 87.161 261.799C88.8815 264.665 93.1359 265.287 96.6636 263.187Z" fill="white"/>
<path fill-rule="evenodd" clip-rule="evenodd" d="M153.834 201.029L153.324 195.672C153.324 195.672 147.388 192.116 142.681 197.288C137.997 202.46 133.986 208.787 131.968 211.05C129.951 213.29 134.403 216.291 140.084 212.805C145.788 209.295 148.872 205.393 148.872 205.393L153.834 201.029Z" fill="white"/>
<path fill-rule="evenodd" clip-rule="evenodd" d="M8.03131 278.081C8.03131 278.081 75.043 277.919 87.6106 287.594C100.178 297.269 118.937 364.323 118.937 364.323L154.785 362.984C154.785 362.984 148.756 429.392 134.333 437.058C122.531 443.338 68.8056 448.187 40.5169 438.028C21.5728 429.346 11.8804 402.907 7.15019 383.65C2.41995 364.37 4.80826 359.474 4.80826 359.474L10.3037 344.65C10.3037 344.65 -0.408918 295.422 0.912766 288.264C2.25764 281.083 8.03131 278.081 8.03131 278.081Z" fill="black"/>
<path fill-rule="evenodd" clip-rule="evenodd" d="M10.3037 344.651C10.3037 344.651 -0.408919 295.422 0.912766 288.264C1.05189 287.525 1.23739 286.832 1.46927 286.209C20.5294 283.577 72.7011 287.802 78.8458 295.491C85.9644 304.427 94.1727 350.7 94.1727 350.7C94.1727 350.7 82.0225 351.047 59.6698 349.453C37.2939 347.883 10.3037 344.651 10.3037 344.651Z" fill="black"/>
<path fill-rule="evenodd" clip-rule="evenodd" d="M153.556 373.883C151.144 393.048 145.069 431.332 134.334 437.058C131.482 438.582 126.125 440.014 119.285 441.192C117.778 439.668 116.224 437.613 114.856 434.865C110.335 425.698 108.665 383.143 108.665 383.143L153.556 373.883Z" fill="black"/>
<path fill-rule="evenodd" clip-rule="evenodd" d="M102.451 443.2C82.0226 444.77 56.9802 443.939 40.5171 438.028C21.5729 429.346 11.8806 402.907 7.15032 383.65C4.27507 371.943 4.02001 365.547 4.27507 362.314C12.0661 362.407 33.2826 362.984 57.1425 366.448C87.2166 370.812 88.5615 377.646 92.9207 391.986C95.9815 402.099 100.202 428.445 102.451 443.2Z" fill="black"/>
<path fill-rule="evenodd" clip-rule="evenodd" d="M75.4609 106.081L77.3159 103.634C77.3159 103.634 77.4551 95.9908 79.0782 90.5646C80.7013 85.1614 87.1706 85.6925 86.4518 88.9021C85.733 92.1116 85.7098 101.602 85.7098 101.602C82.6027 102.941 79.1246 104.465 75.4609 106.081Z" fill="white"/>
<path fill-rule="evenodd" clip-rule="evenodd" d="M372.236 294.728C372.236 294.728 368.294 292.973 366.277 296.645C364.282 300.316 345.918 333.012 345.918 333.012L334.278 352.431C334.278 352.431 330.8 356.911 334.695 359.566C338.591 362.244 362.961 373.582 362.961 373.582C362.961 373.582 368.085 377.253 371.934 370.926C375.783 364.577 403.678 315.117 403.678 315.117C403.678 315.117 407.226 309.575 402.495 307.405C397.765 305.234 372.236 294.728 372.236 294.728Z" fill="white" stroke="#FFC300" stroke-width="1.15966" stroke-linecap="round" stroke-linejoin="round"/>
<path fill-rule="evenodd" clip-rule="evenodd" d="M394.242 303.873C389.697 301.956 384.225 299.694 379.888 297.893L379.146 301.61L391.111 306.528L394.242 303.873Z" fill="#FFC300" stroke="#FFC300" stroke-width="1.15966" stroke-linecap="round" stroke-linejoin="round"/>
<path d="M318.581 57.1758C318.581 57.1758 320.923 52.8118 324.285 53.897C326.14 54.4974 326.72 57.476 327.346 60.7779C327.879 63.5488 328.482 66.5736 329.757 68.1669C331.311 70.0834 331.334 67.3125 331.334 67.3125L332.911 67.3356C332.911 67.3587 332.865 74.4936 328.528 69.1597C326.998 67.2432 326.372 64.0106 325.792 61.055C325.259 58.238 324.749 55.6981 323.798 55.3979C321.711 54.7283 319.972 57.9378 319.949 57.9378L318.581 57.1758Z" fill="black"/>
<path d="M264.67 234.394L258.804 231.623" stroke="black" stroke-width="1.15966" stroke-linecap="round" stroke-linejoin="round"/>
<path d="M265.227 230.816C263.209 230.746 260.844 230.746 258.804 231.624" stroke="black" stroke-width="1.15966" stroke-linecap="round" stroke-linejoin="round"/>
<path d="M153.324 195.672C153.324 195.672 147.388 192.116 142.681 197.288C137.997 202.46 133.986 208.787 131.968 211.05C129.951 213.29 134.403 216.291 140.084 212.805C145.788 209.295 148.872 205.393 148.872 205.393" stroke="black" stroke-width="1.15966" stroke-linecap="round" stroke-linejoin="round"/>
<path d="M75.4609 106.081L77.3159 103.634C77.3159 103.634 77.4551 95.9908 79.0782 90.5646C80.7013 85.1614 87.1706 85.6925 86.4518 88.9021C85.733 92.1116 85.7098 101.602 85.7098 101.602" stroke="black" stroke-width="1.15966" stroke-linecap="round" stroke-linejoin="round"/>
<path d="M139.644 271.731C152.536 278.243 148.525 287.41 144.513 299.417C141.244 309.184 125.963 349.199 120.282 364.116" stroke="white" stroke-width="1.15966" stroke-linecap="round" stroke-linejoin="round"/>
<path d="M87.2393 287.617C99.7837 297.292 118.542 364.346 118.542 364.346L125.962 364.069" stroke="white" stroke-width="1.15966" stroke-linecap="round" stroke-linejoin="round"/>
<path d="M119.285 441.192C117.778 439.668 116.224 437.613 114.856 434.865C110.335 425.698 108.665 383.143 108.665 383.143L153.556 373.883" stroke="white" stroke-width="1.15966" stroke-linecap="round" stroke-linejoin="round"/>
<path d="M4.27441 362.314C12.0654 362.407 33.2819 362.984 57.1418 366.448C87.2159 370.812 88.5608 377.646 92.92 391.986C95.9808 402.099 100.201 428.445 102.45 443.2" stroke="white" stroke-width="1.15966" stroke-linecap="round" stroke-linejoin="round"/>
<path d="M1.46973 286.209C20.5298 283.577 72.7016 287.802 78.8462 295.491C85.9648 304.427 94.1731 350.7 94.1731 350.7C94.1731 350.7 82.0229 351.047 59.6702 349.453C37.2943 347.883 10.3041 344.651 10.3041 344.651" stroke="white" stroke-width="1.15966" stroke-linecap="round" stroke-linejoin="round"/>
<path d="M150.17 209.457C148.826 215.045 115.366 313.294 115.366 313.294C115.366 313.294 113.372 317.982 108.92 317.635" stroke="white" stroke-width="1.15966" stroke-linecap="round" stroke-linejoin="round"/>
<path d="M139.921 195.926L137.115 192.093" stroke="black" stroke-width="1.15966" stroke-linecap="round" stroke-linejoin="round"/>
<path d="M67.4141 138.361L70.6371 146.304" stroke="#6CA3B7" stroke-width="1.15966" stroke-linecap="round" stroke-linejoin="round"/>
<path d="M72.4004 134.367L75.7858 142.287" stroke="#6CA3B7" stroke-width="1.15966" stroke-linecap="round" stroke-linejoin="round"/>
<path d="M77.3389 130.926L81.0952 138.245" stroke="#6CA3B7" stroke-width="1.15966" stroke-linecap="round" stroke-linejoin="round"/>
<path d="M82.5791 127.486L86.1732 134.552" stroke="#6CA3B7" stroke-width="1.15966" stroke-linecap="round" stroke-linejoin="round"/>
<path d="M87.4482 124.369L91.2742 131.019" stroke="#6CA3B7" stroke-width="1.15966" stroke-linecap="round" stroke-linejoin="round"/>
<path d="M177.856 242.105L185.926 245.638" stroke="#6CA3B7" stroke-width="1.15966" stroke-linecap="round" stroke-linejoin="round"/>
<path d="M179.433 234.764L187.85 238.389" stroke="#6CA3B7" stroke-width="1.15966" stroke-linecap="round" stroke-linejoin="round"/>
<path d="M180.778 228.575L189.682 231.3" stroke="#6CA3B7" stroke-width="1.15966" stroke-linecap="round" stroke-linejoin="round"/>
<path d="M182.169 222.064L191.235 224.719" stroke="#6CA3B7" stroke-width="1.15966" stroke-linecap="round" stroke-linejoin="round"/>
<path d="M183.49 215.899L192.533 218.624" stroke="#6CA3B7" stroke-width="1.15966" stroke-linecap="round" stroke-linejoin="round"/>
<path d="M184.557 210.912L193.461 213.637" stroke="#6CA3B7" stroke-width="1.15966" stroke-linecap="round" stroke-linejoin="round"/>
<path d="M319.67 214.282C319.67 214.282 307.218 265.335 273.712 277.504C240.206 289.672 176.58 248.133 176.58 248.133L185.275 207.632L258.803 231.623L287.787 168.402" stroke="black" stroke-width="1.15966" stroke-linecap="round" stroke-linejoin="round"/>
<path d="M1.26074 38.8887L31.9145 124.277L75.2751 106.151" stroke="black" stroke-width="1.15966" stroke-linecap="round" stroke-linejoin="round"/>
<path d="M205.31 37.6409C209.228 34.6853 215.257 31.4065 223.558 29.3745" stroke="white" stroke-width="1.15966" stroke-linecap="round" stroke-linejoin="round"/>
<path d="M205.473 26.5584C210.133 25.1961 213.101 24.3879 218.875 23.8337" stroke="white" stroke-width="1.15966" stroke-linecap="round" stroke-linejoin="round"/>
<path d="M221.123 38.8413C223.419 37.0633 226.503 35.193 230.375 33.5305" stroke="white" stroke-width="1.15966" stroke-linecap="round" stroke-linejoin="round"/>
<path d="M331.751 83.2898L335.229 87.9772M318.001 64.7483L328.528 78.9719L318.001 64.7483Z" stroke="white" stroke-width="1.15966" stroke-linecap="round" stroke-linejoin="round"/>
<path d="M162.134 453.682C153.3 457.308 146.877 452.436 146.877 452.436C146.877 452.436 142.471 448.764 139.666 442.253C136.86 435.718 136.095 433.617 136.095 433.617" stroke="black" stroke-width="1.15966" stroke-linecap="round" stroke-linejoin="round"/>
<path d="M96.0273 455.508C88.0276 457.147 81.6975 451.651 81.6975 451.651C81.6975 451.651 78.6831 449.573 76.9209 446.641C75.1586 443.708 74.834 443.131 74.834 443.131" stroke="black" stroke-width="1.15966" stroke-linecap="round" stroke-linejoin="round"/>
<path d="M163.526 351.324C162.599 347.953 160.488 339.317 158.425 336.754" stroke="black" stroke-width="1.15966" stroke-linecap="round" stroke-linejoin="round"/>
<path d="M165.844 343.634C164.917 340.286 162.737 333.128 160.743 329.087" stroke="black" stroke-width="1.15966" stroke-linecap="round" stroke-linejoin="round"/>
<path d="M167.584 334.768C166.634 331.42 164.361 323.985 162.46 320.221" stroke="black" stroke-width="1.15966" stroke-linecap="round" stroke-linejoin="round"/>
<path d="M170.111 326.34C169.184 322.992 165.706 312.44 163.665 308.26" stroke="black" stroke-width="1.15966" stroke-linecap="round" stroke-linejoin="round"/>
<path d="M70.197 7.48566L69.4086 4.46083L66.9971 5.61534L66.2551 3.05231L63.8436 4.43773L63.0089 2.08252L59.3221 4.2761L1.26074 38.8885" stroke="black" stroke-width="1.15966" stroke-linecap="round" stroke-linejoin="round"/>
<path d="M269.725 60.2004C270.142 58.0761 270.49 55.6285 270.652 53.1578C270.722 51.9802 270.745 50.8026 270.698 49.625" stroke="white" stroke-width="1.15966" stroke-linecap="round" stroke-linejoin="round"/>
<path d="M275.384 57.3607C275.941 54.1973 276.382 50.3874 276.15 46.7622" stroke="white" stroke-width="1.15966" stroke-linecap="round" stroke-linejoin="round"/>
<path d="M279.349 60.9855C280.16 57.8913 280.925 54.1276 280.995 50.5024" stroke="white" stroke-width="1.15966" stroke-linecap="round" stroke-linejoin="round"/>
<path d="M71.5409 406.81C71.5409 406.81 67.3439 388.13 45.5709 382.288C23.7979 376.446 12.1346 380.417 6.77832 382.126" stroke="white" stroke-width="1.15966" stroke-linecap="round" stroke-linejoin="round"/>
</svg>
