<svg width="486" height="460" viewBox="0 0 486 460" fill="none" xmlns="http://www.w3.org/2000/svg">
<path fill-rule="evenodd" clip-rule="evenodd" d="M391.742 107.951L466.429 88.4802L423.777 157.115L391.742 107.951ZM406.838 113.086L423.707 137.644L446.526 101.979L406.838 113.086Z" fill="#003566"/>
<path d="M432.037 135.437L435.21 138.713" stroke="#6CA3B7" stroke-width="1.1669" stroke-linecap="round" stroke-linejoin="round"/>
<path d="M439.527 126.957L441.44 128.699" stroke="#6CA3B7" stroke-width="1.1669" stroke-linecap="round" stroke-linejoin="round"/>
<path d="M444.053 116.082L447.226 119.358" stroke="#6CA3B7" stroke-width="1.1669" stroke-linecap="round" stroke-linejoin="round"/>
<path d="M451.17 108.207L453.083 109.95" stroke="#6CA3B7" stroke-width="1.1669" stroke-linecap="round" stroke-linejoin="round"/>
<path d="M455.953 96.9382L459.126 100.214" stroke="#6CA3B7" stroke-width="1.1669" stroke-linecap="round" stroke-linejoin="round"/>
<path fill-rule="evenodd" clip-rule="evenodd" d="M376.996 2.3507C376.996 2.3507 404.644 -5.20052 415.097 13.2709C425.55 31.7424 416.45 51.5382 390.668 47.3328C386.422 46.659 382.619 45.6599 379.259 44.4284L365.703 50.7018L368.526 38.736C353.08 26.9793 357.163 8.0664 376.996 2.3507Z" fill="#FFD60A"/>
<path fill-rule="evenodd" clip-rule="evenodd" d="M405.834 34.2054L394.121 8.92625C394.121 8.92625 393.001 6.04517 390.994 7.71805C388.988 9.39094 373.799 32.1375 373.799 32.1375C373.799 32.1375 371.419 35.2045 376.318 36.1339C381.218 37.0633 404.457 37.4815 404.457 37.4815C404.457 37.4815 407.607 38.2482 405.834 34.2054Z" fill="white"/>
<path fill-rule="evenodd" clip-rule="evenodd" d="M393.911 15.4314L389.338 15.1526L389.385 26.3981L392.418 26.584L393.911 15.4314ZM390.505 32.6482C391.181 32.6947 391.765 32.5088 392.231 32.1138C392.721 31.6956 392.978 31.1844 393.001 30.5571C393.048 29.953 392.861 29.4186 392.441 28.9771C392.021 28.5357 391.485 28.2801 390.785 28.2336C390.108 28.1872 389.525 28.373 389.058 28.7448C388.592 29.1398 388.335 29.6509 388.288 30.2783C388.242 30.8824 388.428 31.44 388.872 31.8814C389.292 32.3461 389.828 32.6017 390.505 32.6482Z" fill="#FFD60A"/>
<path fill-rule="evenodd" clip-rule="evenodd" d="M450.562 217.061C457.912 217.015 474.408 215.853 481.338 206.466C490.344 194.221 481.081 180.792 461.948 180.281C417.431 179.119 417.221 213.134 441.719 216.666L445.756 225.449L450.562 217.061Z" fill="white" stroke="black" stroke-width="1.1669" stroke-linecap="round" stroke-linejoin="round"/>
<path fill-rule="evenodd" clip-rule="evenodd" d="M443.376 198.52C444.659 198.52 445.686 199.589 445.686 200.89C445.686 202.191 444.659 203.26 443.376 203.26C442.093 203.26 441.043 202.191 441.043 200.89C441.043 199.589 442.093 198.52 443.376 198.52ZM467.968 194.872C469.252 194.872 470.278 195.941 470.278 197.242C470.278 198.543 469.252 199.612 467.968 199.612C466.685 199.612 465.635 198.543 465.635 197.242C465.635 195.941 466.685 194.872 467.968 194.872ZM455.416 196.917C456.699 196.917 457.749 197.962 457.749 199.287C457.749 200.588 456.699 201.634 455.416 201.634C454.132 201.634 453.106 200.588 453.106 199.287C453.106 197.962 454.132 196.917 455.416 196.917Z" fill="black"/>
<path fill-rule="evenodd" clip-rule="evenodd" d="M153.264 133.928C162.27 121.683 153.007 108.253 133.874 107.742C104.359 106.975 94.3262 121.66 98.0594 132.673L93.043 141.734L103.449 140.038C106.086 142.06 109.516 143.547 113.669 144.127C126.315 144.662 145.074 145.034 153.264 133.928Z" fill="white" stroke="black" stroke-width="1.1669" stroke-linecap="round" stroke-linejoin="round"/>
<path fill-rule="evenodd" clip-rule="evenodd" d="M115.302 125.982C116.585 125.982 117.612 127.05 117.612 128.351C117.612 129.653 116.585 130.698 115.302 130.698C114.019 130.698 112.969 129.653 112.969 128.351C112.969 127.05 114.019 125.982 115.302 125.982ZM139.894 122.334C141.177 122.334 142.204 123.403 142.204 124.704C142.204 126.005 141.177 127.074 139.894 127.074C138.611 127.074 137.561 126.005 137.561 124.704C137.561 123.403 138.611 122.334 139.894 122.334ZM127.365 124.378C128.648 124.378 129.675 125.424 129.675 126.748C129.675 128.049 128.648 129.095 127.365 129.095C126.081 129.095 125.032 128.049 125.032 126.748C125.032 125.424 126.081 124.378 127.365 124.378Z" fill="black"/>
<path fill-rule="evenodd" clip-rule="evenodd" d="M132.405 18.3354L128.205 65.8267L168.08 58.6937L171.86 10.9468L132.405 18.3354Z" fill="#FFD60A"/>
<path fill-rule="evenodd" clip-rule="evenodd" d="M135.579 21.937L134.389 34.716L166.914 28.8841L167.94 15.8728L135.579 21.937Z" fill="white"/>
<path d="M139.148 37.1787L138.728 42.0115L133.875 42.5923" stroke="black" stroke-width="1.1669" stroke-linecap="round" stroke-linejoin="round"/>
<path d="M147.525 36.0862L147.105 40.8957L142.252 41.4766" stroke="black" stroke-width="1.1669" stroke-linecap="round" stroke-linejoin="round"/>
<path d="M156.087 34.3213L155.667 39.1541L150.814 39.7349" stroke="black" stroke-width="1.1669" stroke-linecap="round" stroke-linejoin="round"/>
<path d="M164.439 32.5784L164.019 37.4112L159.166 37.992" stroke="black" stroke-width="1.1669" stroke-linecap="round" stroke-linejoin="round"/>
<path d="M138.728 45.3579L138.308 50.1674L133.455 50.7715" stroke="black" stroke-width="1.1669" stroke-linecap="round" stroke-linejoin="round"/>
<path d="M147.103 44.2419L146.683 49.0747L141.83 49.6556" stroke="black" stroke-width="1.1669" stroke-linecap="round" stroke-linejoin="round"/>
<path d="M155.666 42.4995L155.246 47.3091L150.393 47.8899" stroke="black" stroke-width="1.1669" stroke-linecap="round" stroke-linejoin="round"/>
<path d="M164.019 40.7566L163.599 45.5894L158.746 46.1702" stroke="black" stroke-width="1.1669" stroke-linecap="round" stroke-linejoin="round"/>
<path d="M138.285 53.3269L137.865 58.1597L133.012 58.7405" stroke="black" stroke-width="1.1669" stroke-linecap="round" stroke-linejoin="round"/>
<path d="M146.638 52.2344L146.218 57.0439L141.365 57.648" stroke="black" stroke-width="1.1669" stroke-linecap="round" stroke-linejoin="round"/>
<path d="M155.201 50.468L154.781 55.3008L149.928 55.8817" stroke="black" stroke-width="1.1669" stroke-linecap="round" stroke-linejoin="round"/>
<path d="M163.552 48.749L163.132 53.5586L158.303 54.1627" stroke="black" stroke-width="1.1669" stroke-linecap="round" stroke-linejoin="round"/>
<path fill-rule="evenodd" clip-rule="evenodd" d="M258.843 118.266L247.807 129.837C247.807 129.837 225.081 103.163 222.305 98.5398C219.528 93.9161 218.595 92.0806 218.595 92.0806C218.595 92.0806 218.268 81.416 219.178 77.3964C220.112 73.3536 223.191 68.242 222.468 66.8014C221.745 65.3841 219.015 64.5942 216.612 67.8935C214.209 71.216 211.899 75.7003 211.899 75.7003C211.899 75.7003 200.349 61.6201 197.013 60.017C193.7 58.4138 191.67 59.9705 191.67 59.9705C191.67 59.9705 189.57 57.5773 186.56 59.4593C183.573 61.3646 187.703 64.385 190.83 69.5896C193.933 74.7941 196.009 79.4875 196.009 79.4875C196.009 79.4875 185.02 68.3117 182.43 67.5217C179.863 66.7317 177.67 68.7764 180.493 72.0989C183.317 75.4215 185.02 77.3034 187.236 80.1148C189.476 82.9262 190.526 85.1567 190.526 85.1567C190.526 85.1567 183.153 81.3695 178.93 81.0442C174.73 80.6957 176.154 84.7617 178.137 85.3658C180.12 85.9467 189.523 91.3603 193.723 94.6364C197.946 97.9125 200.233 100.515 200.233 100.515L229.631 148.773C232.338 153.187 239.757 160.692 252.637 154.628C265.539 148.587 281.895 135.831 281.895 135.831L258.843 118.266Z" fill="white" stroke="black" stroke-width="1.1669" stroke-linecap="round" stroke-linejoin="round"/>
<path fill-rule="evenodd" clip-rule="evenodd" d="M226.833 381.932C226.833 381.932 224.219 407.583 220.44 419.502C216.683 431.421 211.923 444.828 226.343 443.178C240.785 441.552 247.832 425.218 250.958 414.925C254.061 404.632 255.555 397.94 255.555 397.94L253.735 378.005L226.833 381.932Z" fill="white" stroke="black" stroke-width="1.1669" stroke-linecap="round" stroke-linejoin="round"/>
<path fill-rule="evenodd" clip-rule="evenodd" d="M253.826 381.652C253.826 381.652 252.613 397.149 249.836 411.81C247.06 426.471 239.803 446.895 254.293 445.779C268.805 444.664 277.088 424.032 279.655 410.068C282.198 396.104 282.828 390.853 282.828 390.853L281.568 373.566L253.826 381.652Z" fill="white" stroke="black" stroke-width="1.1669" stroke-linecap="round" stroke-linejoin="round"/>
<path fill-rule="evenodd" clip-rule="evenodd" d="M352.708 194.359C354.224 194.034 356.417 211.134 355.064 227.259C353.711 243.384 341.415 256.465 328.419 266.363C315.446 276.261 287.634 286.182 287.634 286.182C286.747 316.549 284.181 347.544 283.761 377.656C281.078 390.272 257.419 394.06 252.146 383.186C252.146 383.186 244.656 388.809 235.043 388.971C225.43 389.157 222.98 384.789 222.98 384.789C220.18 361.485 199.765 266.177 215.864 246.358C234.296 223.727 265.002 209.182 286.024 200.469L352.708 194.359Z" fill="#003566"/>
<path d="M256.907 244.941C254.971 246.102 239.968 255.605 241.905 279.351C243.841 303.12 251.797 379.283 251.937 380.514" stroke="black" stroke-width="1.1669" stroke-linecap="round" stroke-linejoin="round"/>
<path fill-rule="evenodd" clip-rule="evenodd" d="M327.954 96.5887L345.196 90.083C345.196 90.083 363.279 94.0793 369.602 109.089C375.902 124.122 377.862 133.439 377.862 133.439L354.669 144.684C354.669 144.684 347.18 166.408 350.54 180.349C353.923 194.29 355.509 194.871 353.666 198.565C351.799 202.259 343.05 211.646 317.081 215.015C291.136 218.361 280.169 205.954 279.329 204.095C278.49 202.259 283.109 182.185 282.946 173.472C282.783 164.736 281.593 156.511 281.593 156.511C281.593 156.511 275.62 152.328 273.683 148.378C271.746 144.429 274.43 135.46 274.43 135.46L254.947 120.032C254.947 120.032 263.394 108.345 268.783 102.885C274.173 97.4251 280.286 92.8944 289.666 91.0821C289.666 91.0821 291.066 90.9659 293.492 90.8033C305.182 90.8497 327.954 96.5887 327.954 96.5887Z" fill="black" stroke="black" stroke-width="0.466762" stroke-linecap="round" stroke-linejoin="round"/>
<path d="M252.823 135.6L247.807 129.837" stroke="black" stroke-width="1.1669" stroke-linecap="round" stroke-linejoin="round"/>
<path d="M203.523 87.5508C203.523 87.5508 207.817 83.508 209.38 80.7895C210.943 78.0479 211.9 75.7012 211.9 75.7012" stroke="black" stroke-width="1.1669" stroke-linecap="round" stroke-linejoin="round"/>
<path d="M202.729 75.8866C200.163 71.6579 195.846 64.827 191.67 59.9709" stroke="black" stroke-width="1.1669" stroke-linecap="round" stroke-linejoin="round"/>
<path d="M280.846 111.412C280.846 111.412 280.122 118.754 278.956 123.285C278.256 125.91 276.996 129.163 276.039 131.464" stroke="white" stroke-width="1.1669" stroke-linecap="round" stroke-linejoin="round"/>
<path fill-rule="evenodd" clip-rule="evenodd" d="M203.429 172.984L200.629 175.633L219.458 236.995L306.697 249.542L349.675 215.805L297.574 210.531L289.548 184.346L203.429 172.984Z" fill="#FFD60A"/>
<path d="M203.477 176.004L286.913 187.087L305.625 246.661" stroke="white" stroke-width="1.1669" stroke-linecap="round" stroke-linejoin="round"/>
<path fill-rule="evenodd" clip-rule="evenodd" d="M278.793 46.3554C279.96 52.559 281.173 57.8797 282.573 62.271C283.693 65.4309 285.49 69.2646 288.15 72.5639C293.843 79.5808 302.382 79.1858 302.382 79.1858L302.896 87.5734L289.666 91.0819C289.666 91.0819 281.477 120.474 307.609 119.126C333.741 117.778 345.197 90.0828 345.197 90.0828L325.808 85.9006C325.808 85.9006 323.871 72.2851 323.708 67.6847C323.545 63.061 323.871 59.8779 323.871 59.8779C323.871 59.8779 328.934 59.2506 330.288 53.0237C331.618 46.8201 329.494 43.5208 328.561 42.452C340.974 1.04806 268.924 -6.24758 278.793 46.3554Z" fill="white"/>
<path fill-rule="evenodd" clip-rule="evenodd" d="M302.381 79.1858C302.381 79.1858 293.842 79.5808 288.149 72.564C285.489 69.2647 283.692 65.431 282.572 62.2711C281.172 57.8798 279.959 52.5591 278.793 46.3555C278.256 43.5441 277.976 40.9186 277.906 38.4557C278.163 37.8516 282.946 26.8617 293.492 22.5633C293.492 22.5633 293.305 31.7177 301.565 36.597C309.824 41.453 316.987 41.1277 316.987 41.1277C316.987 41.1277 316.871 45.4028 317.384 48.1213C317.874 50.863 319.391 52.2338 319.647 52.0247C319.904 51.8156 318.854 44.8452 322.937 42.5915C327.02 40.3145 328.56 42.4521 328.56 42.4521C329.493 43.5209 331.617 46.8202 330.287 53.0238C328.933 59.2506 323.87 59.878 323.87 59.878C323.87 59.878 323.544 63.0611 323.707 67.6848C323.847 71.472 325.177 81.3467 325.644 84.7389C339.9 80.8355 347.249 72.9125 347.249 72.9125C346.899 52.5591 338.92 -7.78098 307.188 6.02033C307.188 6.02033 296.735 -1.85617 285.932 7.27499C275.153 16.4294 270.673 33.3906 268.666 52.257C266.636 71.1467 262.67 82.5548 262.67 82.5548C262.67 82.5548 265.843 83.9954 268.456 80.9749C271.07 77.9544 274.849 69.1253 274.849 69.1253C274.849 69.1253 273.426 83.4842 275.946 85.343C277.673 86.5977 289.805 87.8523 302.895 87.5038L302.381 79.1858Z" fill="#FFD60A"/>
<path d="M323.403 55.5567C323.403 55.5567 322.517 52.7454 323.637 48.6329C324.78 44.5204 327.347 45.2639 327.347 45.2639" stroke="black" stroke-width="1.1669" stroke-linecap="round" stroke-linejoin="round"/>
<path d="M326.998 51.8854L323.498 49.2134" stroke="black" stroke-width="1.1669" stroke-linecap="round" stroke-linejoin="round"/>
<path fill-rule="evenodd" clip-rule="evenodd" d="M284.088 47.5406C285.068 47.1921 286.164 47.8194 286.538 48.9114C286.934 50.0267 286.468 51.1884 285.488 51.5369C284.508 51.8622 283.411 51.2349 283.038 50.1429C282.641 49.0276 283.108 47.8659 284.088 47.5406ZM301.377 48.3538C302.357 48.0053 303.453 48.6326 303.85 49.7479C304.223 50.8399 303.757 52.0016 302.8 52.3501C301.82 52.6754 300.724 52.0713 300.327 50.9561C299.954 49.864 300.42 48.6791 301.377 48.3538Z" fill="black"/>
<path d="M292.254 47.9351C292.254 47.9351 291.881 54.1852 291.508 56.9268C291.134 59.6453 290.621 61.4576 290.621 61.4576C292.138 61.8526 294.028 61.8526 295.638 61.3646" stroke="black" stroke-width="1.1669" stroke-linecap="round" stroke-linejoin="round"/>
<path d="M285.652 56.1358C289.411 54.3527 290.892 49.5789 288.961 45.4732C287.029 41.3675 282.417 39.4847 278.658 41.2678C274.899 43.0509 273.417 47.8247 275.349 51.9304C277.28 56.0361 281.893 57.9189 285.652 56.1358Z" stroke="black" stroke-width="1.58139" stroke-linecap="round" stroke-linejoin="round"/>
<path d="M306.57 56.1141C310.329 54.331 311.81 49.5572 309.879 45.4515C307.947 41.3458 303.334 39.463 299.576 41.246C295.817 43.0291 294.335 47.8029 296.267 51.9086C298.198 56.0143 302.811 57.8972 306.57 56.1141Z" stroke="black" stroke-width="1.58139" stroke-linecap="round" stroke-linejoin="round"/>
<path d="M320.954 44.5896L310.664 48.1445" stroke="black" stroke-width="1.1669" stroke-linecap="round" stroke-linejoin="round"/>
<path d="M289.805 48.7253L295.451 48.8654" stroke="black" stroke-width="1.1669" stroke-linecap="round" stroke-linejoin="round"/>
<path d="M318.27 69.0562C315.471 74.3536 310.477 77.6065 304.621 78.8611" stroke="black" stroke-width="1.1669" stroke-linecap="round" stroke-linejoin="round"/>
<path d="M300.421 71.0319C301.613 70.6358 302.235 69.154 301.81 67.7223C301.384 66.2907 300.073 65.4512 298.88 65.8474C297.687 66.2435 297.066 67.7253 297.491 69.157C297.917 70.5886 299.228 71.4281 300.421 71.0319Z" fill="black" stroke="black" stroke-width="1.43924" stroke-linecap="round" stroke-linejoin="round"/>
<path d="M295.357 65.9666L299.161 65.7798" stroke="black" stroke-width="1.1669" stroke-linecap="round" stroke-linejoin="round"/>
<path d="M345.221 129.93L350.027 144.87" stroke="white" stroke-width="1.1669" stroke-linecap="round" stroke-linejoin="round"/>
<path fill-rule="evenodd" clip-rule="evenodd" d="M352.896 145.358L358.589 168.917L330.264 202.143C330.264 202.143 312.228 208.765 309.778 211.134C307.352 213.481 302.545 218.477 301.939 219.197C301.355 219.917 302.615 221.125 303.712 221.334C304.809 221.544 305.695 221.334 305.695 221.334C305.695 221.334 302.149 227.422 302.755 228.839C303.339 230.28 306.162 228.979 306.162 228.979C306.162 228.979 306.418 231.325 307.795 231.418C309.195 231.488 311.295 229.559 311.295 229.559C311.295 229.559 311.715 231.488 314.048 231.116C316.358 230.744 317.525 228.421 317.525 228.421C317.525 228.421 319.018 231.836 322.424 228.398C330.521 220.219 328.047 224.03 336.447 217.385C340.507 214.201 342.863 211.274 342.863 211.274C342.863 211.274 380.942 190.293 382.038 173.076C383.135 155.883 376.112 134.275 376.112 134.275L352.896 145.358Z" fill="white" stroke="black" stroke-width="1.1669" stroke-linecap="round" stroke-linejoin="round"/>
<path d="M325.526 218.476C324.08 219.475 320.113 223.309 317.523 228.421" stroke="black" stroke-width="1.1669" stroke-linecap="round" stroke-linejoin="round"/>
<path d="M320.534 217.292C317.525 219.778 312.998 225.168 311.295 229.56" stroke="black" stroke-width="1.1669" stroke-linecap="round" stroke-linejoin="round"/>
<path d="M316.31 216.618C311.27 220.847 308.587 224.077 306.16 228.979" stroke="black" stroke-width="1.1669" stroke-linecap="round" stroke-linejoin="round"/>
<path d="M312.273 214.829C310.056 216.572 307.21 219.012 305.693 221.335" stroke="black" stroke-width="1.1669" stroke-linecap="round" stroke-linejoin="round"/>
<path d="M305.882 7.1123C305.882 7.1123 302.639 8.34373 299.349 11.5966C296.059 14.8726 294.379 18.7063 294.379 18.7063" stroke="white" stroke-width="1.1669" stroke-linecap="round" stroke-linejoin="round"/>
<path d="M302.311 20.6345C302.311 20.6345 304.317 29.696 313.837 33.1347C323.38 36.5734 326.739 35.644 326.739 35.644" stroke="white" stroke-width="1.1669" stroke-linecap="round" stroke-linejoin="round"/>
<path d="M313.416 22.8889C313.416 22.8889 314.933 27.257 320.579 28.8602C326.225 30.4401 328.675 30.626 328.675 30.626" stroke="white" stroke-width="1.1669" stroke-linecap="round" stroke-linejoin="round"/>
<path d="M325.061 23.98C325.061 23.98 328.257 24.4911 330.777 26.6752C333.32 28.8592 334.253 29.9513 334.253 29.9513" stroke="white" stroke-width="1.1669" stroke-linecap="round" stroke-linejoin="round"/>
<path d="M338.033 57.5549C338.033 57.5549 339.036 62.3412 339.036 66.5467C339.036 70.7289 339.036 70.7289 339.036 70.7289V70.3107" stroke="white" stroke-width="1.1669" stroke-linecap="round" stroke-linejoin="round"/>
<path d="M333.482 61.3418C333.482 61.3418 333.833 64.5946 334.16 66.709C334.486 68.8001 334.486 68.9627 334.486 68.9627" stroke="white" stroke-width="1.1669" stroke-linecap="round" stroke-linejoin="round"/>
<path d="M282.338 74.7717L282.244 79.7207" stroke="white" stroke-width="1.1669" stroke-linecap="round" stroke-linejoin="round"/>
<path d="M363.651 168.918H358.588" stroke="black" stroke-width="1.1669" stroke-linecap="round" stroke-linejoin="round"/>
<path d="M302.661 83.0426L302.988 87.6895L294.705 89.8968M334.953 87.9451L325.784 85.9702C325.784 85.9702 323.87 72.285 323.707 67.6846C323.544 63.0609 323.87 59.8778 323.87 59.8778C323.87 59.8778 328.933 59.2505 330.287 53.0236C331.617 46.82 329.493 43.5207 328.56 42.4519" stroke="black" stroke-width="1.1669" stroke-linecap="round" stroke-linejoin="round"/>
<path d="M286.678 309.905C287.052 301.959 287.402 294.036 287.635 286.183C287.635 286.183 315.447 276.261 328.42 266.364C341.416 256.466 353.712 243.385 355.065 227.26C356.419 211.135 354.879 203.793 354.879 203.793M222.001 239.574C219.832 241.758 217.778 244.012 215.865 246.359C209.565 254.119 208.865 273.45 210.499 295.5L222.001 239.574Z" stroke="black" stroke-width="1.1669" stroke-linecap="round" stroke-linejoin="round"/>
<path fill-rule="evenodd" clip-rule="evenodd" d="M389.386 245.291C389.386 245.291 384.089 248.219 380.543 255.607C377.02 262.996 374.897 273.823 374.897 273.823C374.897 273.823 365.54 284.325 364.864 286.416C364.187 288.507 372.027 289.901 372.027 289.901C372.027 289.901 370.557 294.688 370.65 295.222C370.72 295.78 383.039 296.57 384.043 297.081C383.996 298.15 374.22 302.773 372.447 303.958C370.673 305.12 374.01 308.814 374.01 308.814C374.01 308.814 369.81 322.244 374.173 323.847C378.56 325.45 396.852 322.43 396.852 322.43L397.949 336.44L433.087 329.377L430.404 302.518C430.404 302.518 448.09 282.211 441.86 261.741C435.607 241.272 405.952 235.556 389.386 245.291Z" fill="white" stroke="black" stroke-width="1.1669" stroke-linecap="round" stroke-linejoin="round"/>
<path d="M385.183 278.856C386.496 278.985 387.691 277.776 387.852 276.155C388.013 274.533 387.079 273.114 385.766 272.985C384.453 272.856 383.258 274.065 383.097 275.686C382.936 277.308 383.87 278.727 385.183 278.856Z" fill="black"/>
<path d="M382.9 266.133C382.9 266.133 384.51 265.18 387.45 265.854C390.413 266.528 391.113 268.038 391.113 268.038" stroke="black" stroke-width="1.1669" stroke-linecap="round" stroke-linejoin="round"/>
<path fill-rule="evenodd" clip-rule="evenodd" d="M241.879 305.213C241.879 305.213 254.315 375.846 252.892 375.985C251.492 376.124 348.974 353.819 348.974 353.819L338.451 282.884L241.879 305.213Z" fill="#FFD60A"/>
<path fill-rule="evenodd" clip-rule="evenodd" d="M378.303 235.904C376.787 247.15 382.947 250.008 388.756 251.727C394.566 253.446 404.482 253.377 403.876 260.765C403.292 268.13 400.936 268.897 402.942 272.917C404.972 276.96 402.032 284.162 405.066 284.766C408.099 285.347 407.842 276.797 416.615 280.05C425.365 283.326 421.072 295.245 417.035 298.428C412.975 301.635 412.229 300.868 413.232 305.399C414.258 309.929 416.848 316.389 420.652 316.644C424.455 316.9 423.265 313.554 428.071 313.879C432.878 314.205 433.718 312.88 436.657 306.653C439.621 300.45 446.107 300.543 448.79 295.756C451.497 290.97 450.144 285.858 453.013 281.142C455.883 276.448 464.563 270.407 461.856 263.902C459.173 257.396 453.853 252.865 453.947 249.845C454.017 246.824 453.993 237.972 447.46 237.716C440.927 237.461 433.624 240.83 428.608 235.068C423.615 229.329 419.345 222.939 413.442 226.727C402.826 233.511 380.567 219.152 378.303 235.904Z" fill="black" stroke="black" stroke-width="0.466762" stroke-linecap="round" stroke-linejoin="round"/>
<path d="M411.271 295.826C411.271 295.826 409.591 289.994 412.111 286.556C414.654 283.117 417.804 285.417 417.804 285.417" stroke="black" stroke-width="1.1669" stroke-linecap="round" stroke-linejoin="round"/>
<path d="M416.173 292.109L411.646 287.322" stroke="black" stroke-width="1.1669" stroke-linecap="round" stroke-linejoin="round"/>
<path fill-rule="evenodd" clip-rule="evenodd" d="M360.313 363.74C360.313 363.74 346.43 361.951 344.937 360.533C343.444 359.116 342.161 355.979 344.517 353.749C346.897 351.518 352.893 346.128 352.893 346.128C352.893 346.128 342.324 338.46 339.104 335.998C335.861 333.535 331.871 331.142 332.571 328.795C333.294 326.425 338.941 329.376 343.397 331.165C347.854 332.954 357.303 337.229 357.303 337.229C357.303 337.229 358.89 335.022 360.826 334.348C362.786 333.674 363.416 334.418 364.303 333.93C365.213 333.442 367.009 330.909 368.363 331.513C369.716 332.117 370.579 332.768 371.932 331.885C373.262 330.979 375.712 330.84 377.765 332.303C379.819 333.744 389.618 347.801 389.432 346.593C389.222 345.361 360.313 363.74 360.313 363.74Z" fill="white" stroke="black" stroke-width="1.1669" stroke-linecap="round" stroke-linejoin="round"/>
<path d="M251.213 309.581L317.453 294.641" stroke="black" stroke-width="1.1669" stroke-linecap="round" stroke-linejoin="round"/>
<path d="M324.15 290.947L330.8 294.873" stroke="black" stroke-width="1.1669" stroke-linecap="round" stroke-linejoin="round"/>
<path d="M329.725 289.483L325.059 296.337" stroke="black" stroke-width="1.1669" stroke-linecap="round" stroke-linejoin="round"/>
<path fill-rule="evenodd" clip-rule="evenodd" d="M253.592 319.084L260.405 358.861L295.8 350.962L289.127 310.928L253.592 319.084Z" fill="white"/>
<path fill-rule="evenodd" clip-rule="evenodd" d="M298.928 308.582L299.768 312.95L333.063 305.143L332.293 300.612L298.928 308.582Z" fill="white"/>
<path fill-rule="evenodd" clip-rule="evenodd" d="M301.121 319.897L301.961 324.266L324.22 319.061L323.45 314.53L301.121 319.897Z" fill="white"/>
<path d="M303.688 332.234L331.033 325.938" stroke="white" stroke-width="1.1669" stroke-linecap="round" stroke-linejoin="round"/>
<path d="M305.203 339.135L328.162 333.722" stroke="white" stroke-width="1.1669" stroke-linecap="round" stroke-linejoin="round"/>
<path d="M306.346 346.361L332.501 340.228" stroke="white" stroke-width="1.1669" stroke-linecap="round" stroke-linejoin="round"/>
<path fill-rule="evenodd" clip-rule="evenodd" d="M280.891 370.966C280.891 370.966 273.565 362.741 270.275 351.914C266.985 341.087 266.402 332.699 263.625 333.28C260.826 333.861 259.916 337.718 259.916 342.434C259.916 347.128 260.569 351.078 260.569 351.078L247.923 340.552L246.873 334.302C246.873 334.302 240.177 336.486 238.917 339.344C237.657 342.202 239.5 347.314 239.5 347.314C239.5 347.314 237.307 348.522 237.307 351.496C237.307 354.493 239.85 357.165 239.85 357.165C239.85 357.165 238.147 359.396 238.31 361.44C238.497 363.508 240.55 365.855 240.55 365.855C240.55 365.855 239.15 372.848 243.163 375.799C247.176 378.75 258.749 388.044 258.749 388.044L280.891 370.966Z" fill="white" stroke="black" stroke-width="1.1669" stroke-linecap="round" stroke-linejoin="round"/>
<path fill-rule="evenodd" clip-rule="evenodd" d="M345.685 375.568C345.685 375.568 356.301 355.772 369.554 349.801C373.147 348.197 379.727 346.269 387.73 344.341C387.73 344.341 389.13 335.651 392.746 334.233C396.386 332.816 429.424 327.681 429.424 327.681C429.424 327.681 438.337 325.59 440.367 327.612C442.397 329.61 445.104 333.792 445.104 333.792C447.647 333.49 449.84 333.281 451.543 333.188C466.873 332.351 480.032 336.371 483.579 360.21C486.682 381.237 483.789 441.368 483.042 455.309H306.883C286.374 434.583 273.192 417.855 254.643 387.975C256.183 368.481 276.388 364.578 280.565 368.179L330.612 411.163C330.612 411.163 343.422 379.169 345.685 375.568Z" fill="#FFD60A"/>
<path d="M323.729 429.03L330.611 411.163" stroke="black" stroke-width="1.1669" stroke-linecap="round" stroke-linejoin="round"/>
<path d="M382.899 406.19L365.703 455.308" stroke="black" stroke-width="1.1669" stroke-linecap="round" stroke-linejoin="round"/>
<path d="M258.912 394.782C258.912 394.782 259.449 384.094 267.685 377.612C275.945 371.129 285.604 372.524 285.604 372.524" stroke="#FFC300" stroke-width="1.1669" stroke-linecap="round" stroke-linejoin="round"/>
<path d="M255.576 382.77L260.383 388.16" stroke="#FFC300" stroke-width="1.1669" stroke-linecap="round" stroke-linejoin="round"/>
<path d="M258.328 376.776L263.648 381.864" stroke="#FFC300" stroke-width="1.1669" stroke-linecap="round" stroke-linejoin="round"/>
<path d="M262.994 371.733L268.174 377.239" stroke="#FFC300" stroke-width="1.1669" stroke-linecap="round" stroke-linejoin="round"/>
<path d="M268.828 368.411L273.588 374.22" stroke="#FFC300" stroke-width="1.1669" stroke-linecap="round" stroke-linejoin="round"/>
<path d="M275.479 366.993L279.842 372.615" stroke="#FFC300" stroke-width="1.1669" stroke-linecap="round" stroke-linejoin="round"/>
<path d="M244.936 338.439L247.922 340.553" stroke="black" stroke-width="1.1669" stroke-linecap="round" stroke-linejoin="round"/>
<path d="M360.058 338.438L357.305 337.23" stroke="black" stroke-width="1.1669" stroke-linecap="round" stroke-linejoin="round"/>
<path d="M415.309 238.483C415.309 238.483 420.675 238.018 423.825 240.086C426.951 242.154 428.118 245.965 428.118 245.965" stroke="white" stroke-width="1.1669" stroke-linecap="round" stroke-linejoin="round"/>
<path d="M437.171 275.682C437.171 275.682 438.268 281.63 436.821 284.163C435.398 286.672 433.555 287.764 433.555 287.764" stroke="white" stroke-width="1.1669" stroke-linecap="round" stroke-linejoin="round"/>
<path d="M443.54 281.165C443.54 281.165 445.99 276.379 445.57 272.87C445.15 269.339 442.887 266.434 442.887 266.434" stroke="white" stroke-width="1.1669" stroke-linecap="round" stroke-linejoin="round"/>
<path d="M415.355 246.731C414.235 243.92 409.685 243.176 406.652 243.92" stroke="white" stroke-width="1.1669" stroke-linecap="round" stroke-linejoin="round"/>
<path d="M394.775 343.039C413.254 339.066 426.46 336.719 445.103 333.792" stroke="#FFC300" stroke-width="1.1669" stroke-linecap="round" stroke-linejoin="round"/>
<path d="M42.0624 172.056L39.5426 148.891M39.5426 148.891C36.2061 147.357 28.6697 143.361 27.1998 138.087C25.2866 131.279 31.1196 129.49 31.1196 129.49L39.5426 148.891ZM81.214 100.749C81.214 100.749 86.5337 126.748 87.0004 136.948C87.467 147.171 84.4805 154.792 80.934 157.813C77.3641 160.857 71.7411 161.716 71.7411 161.716" stroke="black" stroke-width="1.1669" stroke-linecap="round" stroke-linejoin="round"/>
<path fill-rule="evenodd" clip-rule="evenodd" d="M37.5117 327.75C37.5117 327.75 42.3882 364.182 55.8742 395.385C64.9038 416.273 78.5998 443.156 86.6728 458.676H188.938L143.37 305.259L37.5117 327.75Z" fill="black"/>
<path fill-rule="evenodd" clip-rule="evenodd" d="M45.5149 174.519L39.3551 173.659C39.3551 173.659 0.41362 190.969 0.600278 219.826C0.763604 248.706 5.47672 263.46 12.5697 274.706C19.6394 285.951 30.0922 291.504 30.0922 291.504L33.2888 329.26C33.2888 329.26 33.1254 338.159 39.6118 338.322C46.0982 338.508 94.1393 338.833 120.271 328.424C146.403 318.015 148.573 313.484 147.733 307.606C146.893 301.728 137.117 265.807 137.117 265.807C137.117 265.807 160.543 257.257 157.02 237.275C153.473 217.317 134.691 187.344 120.435 176.517C106.202 165.689 77.5267 168.64 77.5267 168.64C77.5267 168.64 62.1274 181.14 45.5149 174.519Z" fill="#003566"/>
<path fill-rule="evenodd" clip-rule="evenodd" d="M81.214 100.749C81.214 100.749 86.5337 126.748 87.0004 136.948C87.467 147.171 84.4805 154.792 80.934 157.813C77.3641 160.857 71.7411 161.716 71.7411 161.716L73.8643 168.547L77.5275 168.64C77.5275 168.64 80.5607 186.229 61.2649 188.599C41.9691 190.945 39.3559 173.659 39.3559 173.659L42.0624 172.056L39.5426 148.891C36.2061 147.357 28.6697 143.361 27.1998 138.087C25.2866 131.279 31.1196 129.49 31.1196 129.49C31.1196 129.49 18.5669 103.374 47.4055 94.4987C76.2209 85.6231 81.214 100.749 81.214 100.749Z" fill="white"/>
<path fill-rule="evenodd" clip-rule="evenodd" d="M41.3158 129.025C41.4792 130.442 41.6425 131.674 41.6891 132.58C41.8991 136.228 39.8459 135.136 38.5626 132.859C37.2794 130.582 34.5495 129.118 31.1196 129.49C31.1196 129.49 25.2866 131.279 27.1998 138.086C29.1131 144.917 39.5426 148.89 39.5426 148.89C39.5426 148.89 40.1026 154.211 40.7092 159.718C33.7795 156.744 26.2665 148.588 18.9169 133.788C11.5672 118.988 12.7338 111.436 17.7269 101.26C22.72 91.0597 30.4197 88.2948 42.8558 85.8552C55.2919 83.4156 70.1545 80.5345 70.1545 80.5345C83.8972 78.3969 89.6136 74.2612 91.9935 78.1181C94.3967 81.975 88.2603 86.0179 88.2603 86.0179C88.2603 86.0179 96.5666 86.0179 97.5232 90.293C98.4799 94.5682 87.2104 97.4028 87.2104 97.4028C87.2104 97.4028 93.9067 100.516 92.3668 103.281C90.8502 106.023 82.4039 106.813 82.4039 106.813C82.4039 106.813 78.8808 106.79 72.6044 106.882C70.2478 106.906 67.3546 106.673 64.2281 106.511C64.6714 107.277 64.7881 108.23 64.0881 109.299C62.1749 112.273 48.9688 109.671 48.9688 109.671C48.9688 109.671 47.6155 115.897 40.7792 115.131C39.7059 118.825 40.1492 123.588 41.3158 129.025Z" fill="black" stroke="black" stroke-width="0.466762" stroke-linecap="round" stroke-linejoin="round"/>
<path d="M59.8835 130.977C58.8079 131.234 57.6403 130.215 57.2755 128.7C56.9107 127.186 57.4868 125.75 58.5624 125.493C59.6379 125.236 60.8055 126.255 61.1703 127.77C61.5351 129.284 60.959 130.72 59.8835 130.977Z" fill="black"/>
<path d="M79.0983 125.248C78.0228 125.505 76.8552 124.485 76.4904 122.971C76.1255 121.456 76.7017 120.02 77.7772 119.764C78.8527 119.507 80.0203 120.526 80.3852 122.04C80.75 123.555 80.1738 124.991 79.0983 125.248Z" fill="black"/>
<path d="M70.3168 123.821C70.3168 123.821 75.1933 134.23 74.05 136.623C72.8834 139.016 69.5469 138.505 69.5469 138.505" stroke="black" stroke-width="1.1669" stroke-linecap="round" stroke-linejoin="round"/>
<path d="M30.2793 134.113C35.1557 134.717 39.1456 139.062 39.8455 143.755" stroke="black" stroke-width="1.1669" stroke-linecap="round" stroke-linejoin="round"/>
<path d="M33.0801 139.991L36.4399 137.343" stroke="black" stroke-width="1.1669" stroke-linecap="round" stroke-linejoin="round"/>
<path d="M59.3272 119.708C59.3272 119.708 57.9506 119.732 55.7807 120.545C53.6108 121.358 52.6309 122.404 52.6309 122.404" stroke="black" stroke-width="1.1669" stroke-linecap="round" stroke-linejoin="round"/>
<path d="M79.7908 115.061C77.3176 114.666 74.821 115.642 72.8145 117.013" stroke="black" stroke-width="1.1669" stroke-linecap="round" stroke-linejoin="round"/>
<path d="M80.8872 94.7308C77.0607 93.0579 71.391 91.5477 64.1113 91.5012" stroke="white" stroke-width="1.1669" stroke-linecap="round" stroke-linejoin="round"/>
<path d="M78.5295 85.6005C74.3997 85.3682 71.7865 85.2985 66.8867 85.9723" stroke="white" stroke-width="1.1669" stroke-linecap="round" stroke-linejoin="round"/>
<path d="M68.0308 98.8656C65.7443 97.8665 62.8277 96.9139 59.2812 96.3098" stroke="white" stroke-width="1.1669" stroke-linecap="round" stroke-linejoin="round"/>
<path d="M30.606 124.866C30.3725 123.03 30.1857 120.939 30.209 118.825C30.209 117.826 30.2557 116.804 30.3725 115.804" stroke="white" stroke-width="1.1669" stroke-linecap="round" stroke-linejoin="round"/>
<path d="M25.9395 122.124C25.6359 119.429 25.4958 116.153 25.8694 113.086" stroke="white" stroke-width="1.1669" stroke-linecap="round" stroke-linejoin="round"/>
<path d="M20.2691 120.893C20.0356 119.081 19.9189 117.176 19.9889 115.317" stroke="white" stroke-width="1.1669" stroke-linecap="round" stroke-linejoin="round"/>
<path d="M69.7808 150.912C71.2755 150.912 72.4873 149.435 72.4873 147.613C72.4873 145.79 71.2755 144.313 69.7808 144.313C68.286 144.313 67.0742 145.79 67.0742 147.613C67.0742 149.435 68.286 150.912 69.7808 150.912Z" fill="black" stroke="black" stroke-width="1.1669" stroke-linecap="round" stroke-linejoin="round"/>
<path d="M73.7003 143.709C71.8803 143.43 69.6638 143.965 68.7305 144.569" stroke="black" stroke-width="1.1669" stroke-linecap="round" stroke-linejoin="round"/>
<path fill-rule="evenodd" clip-rule="evenodd" d="M41.0112 223.869L35.4348 253.237C35.4348 253.237 29.3684 255.677 26.5919 256.35C23.8154 257.024 22.9754 255.305 22.9754 255.305C22.9754 255.305 20.8055 255.839 19.9189 254.701C19.0556 253.586 19.2889 251.309 19.2889 251.309C19.2889 251.309 17.7723 250.774 17.539 249.008C17.2823 247.243 17.9823 244.849 17.9823 244.849C17.9823 244.849 15.9757 236.88 23.722 230.072C31.4683 223.288 41.0112 223.869 41.0112 223.869Z" fill="white"/>
<path d="M32.3561 246.824C32.3561 246.824 27.853 249.38 26.0797 251.216C24.3065 253.075 22.9766 255.305 22.9766 255.305" stroke="black" stroke-width="1.1669" stroke-linecap="round" stroke-linejoin="round"/>
<path d="M33.0318 237.717C33.0318 237.717 28.1553 240.784 25.0755 243.758C21.9956 246.732 19.2891 251.309 19.2891 251.309" stroke="black" stroke-width="1.1669" stroke-linecap="round" stroke-linejoin="round"/>
<path d="M33.2884 230.862C33.2884 230.862 29.2052 231.791 25.4021 235.021C21.6223 238.25 17.9824 244.849 17.9824 244.849" stroke="black" stroke-width="1.1669" stroke-linecap="round" stroke-linejoin="round"/>
<path d="M137.118 265.806C137.118 265.806 125.359 270.476 107.323 270.151C89.3103 269.803 73.2344 262.925 73.2344 262.925" stroke="black" stroke-width="1.1669" stroke-linecap="round" stroke-linejoin="round"/>
<path d="M142.064 230.793L76.1035 231.188" stroke="black" stroke-width="1.1669" stroke-linecap="round" stroke-linejoin="round"/>
<path d="M115.932 196.126L126.548 230.885" stroke="black" stroke-width="1.1669" stroke-linecap="round" stroke-linejoin="round"/>
<path d="M32.4961 210.903L33.9194 224.751" stroke="black" stroke-width="1.1669" stroke-linecap="round" stroke-linejoin="round"/>
<path d="M47.498 195.243C47.498 195.243 59.5608 197.543 66.0005 199.007C72.4402 200.494 76.9667 201.702 76.9667 201.702" stroke="#6CA3B7" stroke-width="1.1669" stroke-linecap="round" stroke-linejoin="round"/>
<path d="M53.7288 190.364L52.748 196.265" stroke="#6CA3B7" stroke-width="1.1669" stroke-linecap="round" stroke-linejoin="round"/>
<path d="M57.9987 191.27L57.1348 197.148" stroke="#6CA3B7" stroke-width="1.1669" stroke-linecap="round" stroke-linejoin="round"/>
<path d="M62.8504 192.269L62.0098 198.148" stroke="#6CA3B7" stroke-width="1.1669" stroke-linecap="round" stroke-linejoin="round"/>
<path d="M67.4713 193.245L66.584 199.147" stroke="#6CA3B7" stroke-width="1.1669" stroke-linecap="round" stroke-linejoin="round"/>
<path d="M71.5546 194.128L71.0176 200.192" stroke="#6CA3B7" stroke-width="1.1669" stroke-linecap="round" stroke-linejoin="round"/>
<path d="M114.928 343.201V357.955L143.416 458.677" stroke="white" stroke-width="1.1669" stroke-linecap="round" stroke-linejoin="round"/>
<path d="M52.8418 346.64C52.8418 346.64 55.6183 348.638 59.8181 350.334C64.0413 352.007 68.0078 353.169 68.0078 353.169" stroke="white" stroke-width="1.1669" stroke-linecap="round" stroke-linejoin="round"/>
<path d="M55.0117 355.956C55.0117 355.956 58.3482 357.908 60.0748 358.559C61.8014 359.186 62.4081 359.604 62.4081 359.604" stroke="white" stroke-width="1.1669" stroke-linecap="round" stroke-linejoin="round"/>
<path d="M52.2578 156.372C52.2578 156.372 55.4077 159.834 60.8674 161.158C66.3272 162.482 71.7403 161.716 71.7403 161.716" stroke="black" stroke-width="1.1669" stroke-linecap="round" stroke-linejoin="round"/>
<path d="M71.5536 191.99C79.3233 189.202 84.433 179.327 84.433 168.291M34.5254 176.098C34.5254 176.098 37.8386 188.203 47.9414 193.314L34.5254 176.098Z" stroke="#6CA3B7" stroke-width="1.1669" stroke-linecap="round" stroke-linejoin="round"/>
<path fill-rule="evenodd" clip-rule="evenodd" d="M51.6738 189.945L70.9696 193.965C70.9696 193.965 71.8096 189.179 71.8096 188.9C71.8096 188.598 82.1457 182.603 82.8224 180.373C83.4757 178.142 81.9357 176.214 81.9357 176.214C81.9357 176.214 83.0557 174.448 82.519 172.659C81.9591 170.847 81.3058 170.475 81.3058 170.475C81.3058 170.475 82.2157 168.198 81.3058 167.059C80.3725 165.944 78.9959 165.619 78.9959 165.619C78.9959 165.619 81.8191 161.669 81.4458 159.926C81.0725 158.161 77.9693 159.253 77.9693 159.253L63.7366 164.597C63.7366 164.597 58.1135 152.561 53.9837 154.234C50.2272 155.744 56.8069 162.993 56.8069 169.22C56.8069 175.424 51.6738 189.945 51.6738 189.945Z" fill="white" stroke="black" stroke-width="1.1669" stroke-linecap="round" stroke-linejoin="round"/>
<path d="M33.7558 261.415L35.4357 253.237L41.0121 223.868L47.4985 195.243L48.8518 189.319L51.675 189.946L70.9707 193.966L76.9905 195.708C76.9905 195.708 77.2471 238.924 72.6973 266.457C68.1475 293.99 53.8915 297.336 45.9819 297.592C38.0489 297.847 31.1426 292.294 31.1426 292.294" stroke="black" stroke-width="1.1669" stroke-linecap="round" stroke-linejoin="round"/>
<path fill-rule="evenodd" clip-rule="evenodd" d="M77.7363 334.86L130.141 351.194L207.417 314.228L220.133 266.411L223.609 252.122L218.896 249.38L212.573 252.122C197.174 258.627 145.283 281.211 145.283 281.211L142.087 282.745C141.41 286.346 140.383 289.646 139.31 292.875L136.44 305.515L135.344 306.049L77.7363 334.86Z" fill="#FFD60A"/>
<path d="M131.027 347.546L146.45 285.045L220.506 253.354" stroke="white" stroke-width="1.1669" stroke-linecap="round" stroke-linejoin="round"/>
<path d="M135.716 308.094L127.41 343.782" stroke="black" stroke-width="1.1669" stroke-linecap="round" stroke-linejoin="round"/>
<path d="M117.121 320.826L134.97 311.3" stroke="black" stroke-width="1.1669" stroke-linecap="round" stroke-linejoin="round"/>
<path d="M125.662 340.111L119.479 338.183L125.405 334.651" stroke="black" stroke-width="1.1669" stroke-linecap="round" stroke-linejoin="round"/>
<path d="M116.888 337.554L111.521 336.091L118.148 332.512" stroke="black" stroke-width="1.1669" stroke-linecap="round" stroke-linejoin="round"/>
<path d="M108.746 335.325L103.939 333.838L110.846 330.353" stroke="black" stroke-width="1.1669" stroke-linecap="round" stroke-linejoin="round"/>
<path d="M126.314 332.398L120.971 330.911L127.574 327.356" stroke="black" stroke-width="1.1669" stroke-linecap="round" stroke-linejoin="round"/>
<path d="M118.195 330.167L113.365 328.68L120.272 325.171" stroke="black" stroke-width="1.1669" stroke-linecap="round" stroke-linejoin="round"/>
<path d="M128.39 324.568L123.561 323.104L130.467 319.595" stroke="black" stroke-width="1.1669" stroke-linecap="round" stroke-linejoin="round"/>
</svg>
