<svg width="36" height="35" viewBox="0 0 36 35" fill="none" xmlns="http://www.w3.org/2000/svg">
<g filter="url(#filter0_i_10_456)">
<path d="M34.9794 7.19988C33.7617 7.73947 32.4536 8.10405 31.0784 8.26884C32.4973 7.41979 33.5589 6.08348 34.065 4.50926C32.7319 5.30112 31.2728 5.8585 29.7513 6.15718C28.7281 5.06469 27.3728 4.34057 25.8959 4.09724C24.419 3.85392 22.9031 4.105 21.5835 4.8115C20.2639 5.51801 19.2145 6.64041 18.5982 8.00445C17.9818 9.36849 17.8331 10.8979 18.175 12.3551C15.4737 12.2195 12.8312 11.5174 10.4188 10.2943C8.00639 9.07131 5.87813 7.3547 4.17211 5.25593C3.58878 6.26218 3.25336 7.42884 3.25336 8.67134C3.25271 9.78988 3.52816 10.8913 4.05527 11.8778C4.58238 12.8644 5.34485 13.7056 6.27503 14.3268C5.19626 14.2924 4.1413 14.0009 3.19794 13.4766V13.5641C3.19784 15.1328 3.74049 16.6534 4.73384 17.8676C5.72718 19.0818 7.11003 19.915 8.64774 20.2257C7.647 20.4966 6.59781 20.5364 5.5794 20.3424C6.01325 21.6922 6.85835 22.8726 7.9964 23.7183C9.13444 24.564 10.5084 25.0326 11.9261 25.0586C9.51958 26.9478 6.54757 27.9725 3.48815 27.968C2.94621 27.9682 2.40472 27.9365 1.86649 27.8732C4.97197 29.8699 8.58698 30.9296 12.279 30.9255C24.7769 30.9255 31.6092 20.5743 31.6092 11.5968C31.6092 11.3051 31.6019 11.0105 31.5888 10.7188C32.9177 9.75776 34.0649 8.56765 34.9765 7.20426L34.9794 7.19988Z" fill="#B8C5D9"/>
</g>
<defs>
<filter id="filter0_i_10_456" x="0.5" y="0" width="35" height="39" filterUnits="userSpaceOnUse" color-interpolation-filters="sRGB">
<feFlood flood-opacity="0" result="BackgroundImageFix"/>
<feBlend mode="normal" in="SourceGraphic" in2="BackgroundImageFix" result="shape"/>
<feColorMatrix in="SourceAlpha" type="matrix" values="0 0 0 0 0 0 0 0 0 0 0 0 0 0 0 0 0 0 127 0" result="hardAlpha"/>
<feOffset dy="4"/>
<feGaussianBlur stdDeviation="7.5"/>
<feComposite in2="hardAlpha" operator="arithmetic" k2="-1" k3="1"/>
<feColorMatrix type="matrix" values="0 0 0 0 0 0 0 0 0 0 0 0 0 0 0 0 0 0 0.2 0"/>
<feBlend mode="normal" in2="shape" result="effect1_innerShadow_10_456"/>
</filter>
</defs>
</svg>
